<svg xmlns="http://www.w3.org/2000/svg" version="1.1" xmlns:xlink="http://www.w3.org/1999/xlink" viewBox="0 0 200 200"><rect width="200" height="200" fill="url('#gradient')"></rect><defs><linearGradient id="gradient" gradientTransform="rotate(360 0.5 0.5)"><stop offset="0%" stop-color="#12afb6"></stop><stop offset="100%" stop-color="#6eecb9"></stop></linearGradient></defs><g><g fill="#13206a" transform="matrix(3.0281365514242227,0,0,3.0281365514242227,32.092280178964074,122.41055345686655)" stroke="#144bb7" stroke-width="0.9"><path d="M3.65-14.22L6.28-8.05L8.90-14.22L12.60-14.22L8.02-5.11L8.02 0L4.54 0L4.54-5.11L-0.03-14.22L3.65-14.22ZM19.49 0L19.39-1.14Q18.35 0.20 16.57 0.20L16.57 0.20Q14.83 0.20 13.94-0.82Q13.05-1.83 13.05-3.72L13.05-3.72L13.05-10.57L16.34-10.57L16.34-3.70Q16.34-2.34 17.66-2.34L17.66-2.34Q18.79-2.34 19.27-3.15L19.27-3.15L19.27-10.57L22.58-10.57L22.58 0L19.49 0ZM34.19-5.36L34.19-5.20Q34.19-2.60 33.12-1.20Q32.04 0.20 30.09 0.20L30.09 0.20Q28.48 0.20 27.49-1.08L27.49-1.08L27.35 0L24.40 0L24.40-15L27.70-15L27.70-9.72Q28.61-10.76 30.07-10.76L30.07-10.76Q32.04-10.76 33.12-9.35Q34.19-7.93 34.19-5.36L34.19-5.36ZM30.89-5.40L30.89-5.40Q30.89-6.92 30.48-7.57Q30.08-8.22 29.24-8.22L29.24-8.22Q28.13-8.22 27.70-7.37L27.70-7.37L27.70-3.17Q28.12-2.33 29.26-2.33L29.26-2.33Q30.42-2.33 30.73-3.47L30.73-3.47Q30.89-4.02 30.89-5.40ZM44.88 0L41.59 0Q41.42-0.32 41.28-0.95L41.28-0.95Q40.37 0.20 38.74 0.20L38.74 0.20Q37.25 0.20 36.20-0.71Q35.16-1.61 35.16-2.98L35.16-2.98Q35.16-4.70 36.43-5.58Q37.70-6.46 40.12-6.46L40.12-6.46L41.13-6.46L41.13-7.01Q41.13-8.47 39.87-8.47L39.87-8.47Q38.70-8.47 38.70-7.31L38.70-7.31L35.41-7.31Q35.41-8.85 36.71-9.80Q38.02-10.76 40.04-10.76Q42.06-10.76 43.23-9.78Q44.40-8.79 44.43-7.07L44.43-7.07L44.43-2.39Q44.45-0.94 44.88-0.17L44.88-0.17L44.88 0ZM39.53-2.15L39.53-2.15Q40.15-2.15 40.55-2.41Q40.96-2.68 41.13-3.01L41.13-3.01L41.13-4.70L40.18-4.70Q38.46-4.70 38.46-3.15L38.46-3.15Q38.46-2.71 38.76-2.43Q39.06-2.15 39.53-2.15Z"></path></g></g></svg>